P1
30 30 
000000000000000000011111100000
000000000000000000111111110000
000000000001111101111111111000
000111100110000011111111111000
001111111000000001110001111100
011111110000000000100000111100
011111110000000000010001111100
111111110000000000000011111100
111101100000000111110001111100
111011011110001111111000111100
111110111111001111111110011000
011110111111001110111110000100
011101110111000111001111000100
001101101110000011101111000100
010011100111111111001111000010
010011110111111111111111000010
010011111110111100111111000010
010001111100111100011110000010
010000111100001001000000000100
001000000001001001110000000100
001000000001101011000000001000
001000000000110110111111111000
000110000111000001111111111100
000111111111111111111111111110
001111111111111111111111111110
011111111111111111111111111111
111111111111111111111111111111
111111111110000000011111111111
111111110000000000000001111111
111111100000000000000000111111
