P1
50 35 
00000000000000000000000000001000001000011000110000
00000000000000000000000000111100111111101111111110
00000000000000000001100011111101110111111001110111
00000000000001111111111101111111111101110111111111
00000000000111111111111111101100111111010101100001
00000000000001111101110000111111110100011111111110
00000000000000000010001111100111111111111111111011
00000000000000000000000000011111111100110000010101
00000000000000000000000000000011100111110111110101
00000000000000000000000000000000000001111111111001
00000000000000000000000000000000000000000111100011
00000000000000000000110000000000000000000000011111
00000000000000000001111000000000000000000000000011
00000000000000000011111100000000000000000000001101
00000001110000000011111100000000000000000000111110
00000111111000000001111000000000000000000001111111
00011111111000000111001110000000000000000111111111
01111111111100001111111111000000000000011111100000
11111111111100011111111111100000000000111111000000
11111000111101110000000000110000000011111100000000
11111000011111111111111111111111111111110000000000
11111100001111111111111111111111111111000000000000
01111110001111111111111111111111111110000000000000
00001111100111111111111111111110001100000000000000
00000011100111111111111111111101110000000000000000
00000011100111111111111111111011000000000000000000
00000001100111111111111111110110000000000000000000
00000001110111111111111111110100000000000000000000
00000000111111111111111111101100000000000000000000
00000000011111111111111111101000000000000000000000
00000011101011111111111111011111010011101100101101
00000011111001111111111110110101010010101010101101
00000111111000111111110001100111010011101010101111
00000011100000111111111111000101010010101010101011
00000011000000011111111000000101011010101100101011
