P1
20 20 
00000000000001100000
00000110000001010000
00000101000010010000
00001010100010101000
00001010111110101000
00001011111111101000
00001111101011111100
00001111000001111100
00001110000000111110
00011101100110001110
00011000000000000111
00010000000000000011
01111000011101000011
11000101011101000111
10000101001001000111
10101100111110001111
11111110011110001111
01111011011100011101
01000011111101110011
01000010011000000001
