P1
37 13 
0000000000011111111111111111111111111
0000000000000000000000011000000000000
1100000000000000001111111111110000000
1110000000000000011100111000001000000
0111000100000000011100111010100100000
0011100100000001110000001010100111000
0001111111111111110000001111111111100
0001111111111111111100111111111111110
0011100100000000111100111111111111110
0011000100000000000111111111111111100
0000000000000000000100000000001000000
0000000000000000000100000000001011000
0000000000000001111111111111111110000
