P1
50 50 
00000000111111111111111000000000000000000000000000
00000011111111111111111110000000000000000000000000
00000111111111111111111111100000000000000000000000
00001111111111111111111100110000000000000000000000
00011111111111111111110000011100000000000000000000
00011111111111111111000001111111110000000000000000
00111111111111111110000111100000111111110000000000
00111111111111111100001111000000000001111111100000
00111111111111110000111100000001111000000001111000
00111111111111100001110000000000000000000000001100
01111111111110000011000000000000000000000000000110
01111111111100001110000001111000000000000000000010
01111111111000011100000000000000000000000111100011
01111111110000110000000000000000000000011111100001
11111111110001100000000000000000000000011111000001
11111111100011001111000000000000000000000000000001
11111111000011010101000000000000000000000000000001
11111111100110010101100110000000000000000000000011
11111111111110111111110011000000000111110000000011
11111111001100111111010001110000011111111100000110
11111110000100111111011000011111111111111100001100
11111100000100111111011000000001100111111110011000
11111100000110111111011100000111000001111111110000
11111000000010011111011110001111111000011111100000
11110000000011000110010111111000001110001111000000
01110000000001100000110011100101100011101111100000
01100000000000111001110111000000000001111111100000
00100000000000011111110110110000011111110011110000
01110000000011111111111110011111110110010001110000
11111000011111111111111111000000100100111001110000
11110011111111111111110001111111100001001000110000
01101111111001110011100111110000000000011000011000
00111111000111001111111111000000000000110000111100
01111100111100111111111100000000000000011000111100
11110011111001110011111000000011111111111111111000
11100111100111101111100000001111111100111111111000
11111110011111011111000000011100000110011000011100
01111101111110011110000000011000111110110011111110
01111011111110111100000000110001100011110010000011
00111111111100111000000000110000000001100000000001
00011111111100111000000000110000011111100000111101
00000111111001110000000000110000110001100001100111
00000001110001110000000000110000100000100001000011
00000000100001100000000000011000000000110000000001
00000000000001100011111111111000000000110000000001
00000000011111100000000000000000000001100000000001
00000011111111100000000000000000000001100000000011
00011111000011100000000000000000000011000000000011
01111000000011100000000000000000000111111000001110
11111111111111111111111111111111111110001111111100
