P1
50 35 
00000000000000000000000000000000000000000000000000
00000000000000000000000000000000000000000000000000
00000000000000000000000000000000000000000000000000
00000000000000000000000000000000000000000000000000
00000000000000010000000000000000000000000000000000
00000000000000000000000000000000000000000000000000
00000000000000000000000000000000000000000000000000
00000000000000000000000000000000000000000000000000
00000000000000000000000000000000000000000000000000
00000000000000000000000000000000000000000000000000
00000000000000000000000000000000000000000000000000
00000000000000000000000000000000000000000000000000
00000000000000000000000000000000000000000000000000
00000000000000000000000000000000000000000000000000
00000000000000000000000000000000000000000000000000
00000000000000000000000000000000000000000000000000
00000000000000000000000000000000000000000000000000
00000000000000000000000000000000000000000000000000
00000000000000010000000000000000000000000000000000
00000000000000010000000000000000000000000000000000
00000000000000011111111111111111111110000000000000
00000000000000011111111111111111111000000000000000
00000000000000010111111111111111110000000000000000
00000000000000010011111111000000000000000000000000
00000000000000010011111000000000000000000000000000
00000000000000010011110000000000000000000000000000
00000000000000010011110000000000000000000000000000
00000000000000010001110000000000000000000000000000
00000000000000011110100000000000000000000000000000
00000000000000011100000000000000000000000000000000
00000000000000111111000000000000000000000000000000
00000000000000111100000000000000000000000000000000
00000000000000000000000000000000000000000000000000
00000000000000000000000000000000000000000000000000
00000000000000000000000000000000000000000000000000
