P1
25 25 
0000000000001111111100001
0000000000011111110011101
0000000000011111100111010
0000000000001111101110011
0000000000001000100000111
0000000000010110000111111
0000000000101101101111111
0000000001011011011001111
0000000010111111110100101
0000000110000111001110101
0000000100110001110111001
0000001100111100001011001
0000010110000011110101011
0000101011111111011101011
0001010111111001100111011
0011101110001100110011011
0111110001100110011011011
0111101111110011011110110
1101110000111011011101110
1101111100011010011011100
1011111110110010111111001
1111110011111111110011011
1111101110000000000001111
0111011100000000000000110
0011011000000000000000010
