P1
20 20 
01000000000000000000
00100000000000000000
01100000000000000000
01100000000000000000
11000000000000000000
11000111111111110000
01000000000011000000
01100000000001100000
00100000000000000100
01100000000000000111
01000000000000000000
01100000000000000000
01000001100000011100
00100000000000000000
00000000000000000000
01100000000000000000
01100000000000000000
01110000000010000000
01110000000000000000
00000000000000000000
