P1
20 20 
00000000000000000000
00000000000000010000
00000000000010000000
00000000100010001000
00000000111010001000
00001011111000001000
00001000000011111100
00001000000001111100
00000000000000111110
00000000000000001110
00000000000000000111
00000000000000000011
00000000011000000011
00000000011000000111
00000000001000000111
00000000011100001111
01111110011100001111
01110010011100011101
00000011111101110011
00000000011000000001
