P1
30 30 
000000000000000000000000000000
000000000000000000000000000000
000000000000000000110000000000
000000000000000000110000000000
000000000000000000110000000000
000000000000000000000000000000
000000000000000000000000000000
000000000000000000000000000000
001100000000000000100000000000
001000000000000001100000000000
000010000011000001111100000000
000000000100000000011000000000
000000000000000000001110000000
000000100000000000001010000000
000000100000111000000010000000
000000100000111111111110000000
000000001000000000000000000000
000000000000000000000000000000
000000000000000000000000000000
000000000000000000000000000000
000000000000000000000000001000
000000000000000000111111111000
000110000111000001111111111100
000111111111111111111111111110
001111111111111111111111111110
011111111111111111111111111111
111111111111111111111111111111
111111111110000000011111111111
111111110000000000000001111111
111111100000000000000000111111
