P1
5 10 
01100
01101
00101
01110
10100
10100
00110
01010
01011
11000
