P1
5 5 
01110
10101
01110
01010
10001
