P1
50 50 
00000000111111111111111000000000000000000000000000
00000011111111111111111110000000000000000000000000
00000111111111111111111111100000000000000000000000
00001111111111111111111100110000000000000000000000
00011111111111111111110000011100000000000000000000
00011111111111111111000001111111110000000000000000
00111111111111111110000111100000111111110000000000
00111111111111111100001111000000000001111111100000
00111111111111110000111100000000000000000001111000
00111111111111100001110000000000000000000000001100
01111111111110000011000000000000000000000000000110
01111111111100001110000000000000000000000000000010
01111111111000011100000000000000000000000000000010
01111111110000110000000000000000000000000000000000
11111111110001100000000000000000000000000000000000
11111111100011001111000000000000000000000000000000
11111111000011010101000000000000000000000000000000
11111111100110010101100000000000000000000000000000
11111111111110111111110000000000000000000000000000
11111111001100111111010000000000000000000000000000
11111110000100111111011000000000111111100000000000
11111100000100111111011000000000000000000000000000
11111100000110111111011100000000000000000000000000
11111000000010011111011110000000000000000000000000
11110000000011000110010111111000000000000000000000
01110000000001100000110001100000000000000000000000
01100000000000111001110111000000000000000000000000
00100000000000011111110110000000000000000000000000
01110000000011111111111110000000000000000000000000
11111000011111111111111111000000000000000000000000
11110011111111111111110001111111000000000000000000
01101111111001110011100111110000000000000000000000
00111111000111001111111111000000000000000000000000
01111100111100111111111100000000000000000000000000
11110011111001110011111000000000011111111111000000
11100111100111101111100000000000111100000111110000
11111110011111011111000000011000000000000000000000
01111101111110011110000000010000000000100000000000
01111011111110111100000000110000000000100000000000
00111111111100111000000000110000000000100000000000
00011111111100111000000000110000000000100000000000
00000111111001110000000000110000000000100000000000
00000001110001110000000000010000000000100000000000
00000000100001100000000000011000000000100000000000
00000000000001100000000000111000000000100000000000
00000000011111100000000000000000000001100000000000
00000011111111100000000000000000000001100000000000
00011111000011100000000000000000000011000000000000
01111000000011100000000000000000000111111000001110
11111111111111111111111111111111111110000111111100
