P1
64 64 
1111111111111111111111111111111111111111111111100011111111111111
1111111100011111100011111111000011111111111111100011111111111111
1111111100011111100011111111001001111111111111100011111111111111
1111111100111111111111111111001111110111111111100011111111111111
1111111110011111111111111110000011111111111111100111111111110011
1111111110011111101111111110000011111111111101111111111111100011
1111100001111110000111111100000111111111110001111111111111100011
1110000000111110011111111100111111111110000011111111111111100111
1110000000011111100111111100111111111100000111111111111111100111
1000000000000011000000111100111111111100100111111111111111111111
1100000000000011000000111111111111111111100111110111100111111111
1100000000000000000000111001111111111111011111110111101111111111
1100000000000000000000111000111111111111011111110111111111111111
0100000000000000100000001000001111100011111111111111111111110011
0110000000000000000000001000001111000011111111111111111111110011
0100000000000000000000000000100011000111110011111111111111111111
1100000000000000000000000000000010001101110011111111111111111111
1100000000000000000000000000000000000001001011111001111111111111
1101000000100000000000000000000000000000000000001001111001111111
1101100000000000000000000000000000000000000001001001011001111111
1100000000000000000000000000000000000000000001000001000001111111
1100000000000000000000100000000000000000000000000000000001111111
1000000000000000000000100011000110010000000000000000000111111111
1100000000000000000000100011000100010001000000000001100010011111
1100000000000000000000100111000000010001111110010011111110011111
1100000000000000000000111111100010010001111111111111111111111111
1100000000000000000000111111111111111111111111111111111111111111
1100000000000000000001111111000011111111111111111111111111111111
0000001000000000000011111111100011111111111111111111111111111111
0000001111111111111111111111111111111111111111111111111111111111
0000001011111111001110011111111111100111110011110111111100011111
0010000000111111001111111111111111100011000111110010000100011111
0000001100001111001111111100000110010011100111111000011110011110
0000000001101001001111001110000100011110000111110000110000000000
0000000000000000001111111100001110011110100110010000000000000000
0000000000000000000000000000000000000001100000000000000000000000
0000000000000000000000000000000000000010000000000000000000000010
0000000000000000000000000000000000000000000000000000000000000000
0000000000000000000000000000000000000000000000000000000000000000
0100000000000000000000000000000000000000000000000000000000011000
1100000000000000000100000000000000000000000111000000000000011111
0100000000000000000000000000000000000000000111000000001000011111
0010000001000000000000000000000000000000010111100001000000001111
0010001110000000000000000000000000000001111111110000000000010111
1111100000000000000000000000000000000000111111111000000000000001
1111000000000000001110000000000000000000111111111000000001000000
0110000000000011001110000000000000000001011111110100000011100010
0110000000000000000000000000000000000000001110010000000111111011
0000001100000000000000000000000000000010000000000000000111111111
0000000000000000000000000000000000000010000001000000111111111111
1111000000000000000001000000000000000011110000000000011111111111
1111000000000000000011110000000000000001111000100000011111111111
1111000000000000001001111000000000010001111111100000001111111111
1001000000011100001111111111111000000001111111110000001111111111
1001111111111100001111111111111000000001111111110001001111111111
1111111111110000001111111111111000000001111111111101001111111111
1111111111110000011111111111111000000001111111111111001111111111
1111111111100001111111111111110000000001111111111111001111111111
1111111111100011111111111111111000000000111111111111000000001111
1111111111000011111111111111111000111000111111111111000000011111
1111111111000111111111111111111000110000011111111111000000111111
1111111011000100111111111111111100110000000011000100110001111110
1111111000000000111111111111111111110000000000000100110001110000
1111110001000000111111111111111111111000000000000111110001000001
