P1
20 20 
01011100110000000001
10110001100000000000
11100011110000000000
01101110011000000000
11001000011111100000
11001111111111111001
01000001000011111111
01100001010001111111
00100011011001100111
11100100000001010111
01001100000001010111
01101000100000000111
01001111100000011111
00100001000000001110
00000111100000001100
01101100100000011001
01101001100001110011
01111001001111110010
01110001111011100110
00000000000111101100
