P1
35 40 
00000000011111111111111100000000000
00000001111111111111111110000000000
00000011111111111111111111000000000
00000111111111111111111111110000000
00000111111111111111110011111000000
00001111111111111111110001111100000
00011111111111111111110001111100000
00011111111111111111100111111100000
00111111111111111111111111111110000
00111111111111111111111111111111000
00111111111111111111111111111111000
00111111111111111111111111111111000
00111111111111111111111111111111000
00111111111111111111111111111111100
00111110011111111100000111111111100
00111100001111111000000011111111100
00111000001111110000000001111111100
00111011100111110001110001111111100
00110111010111110001101001111111100
00110111010111110011101101111111100
00110111110011110011111101111111100
00111011110000000011111101111111100
00111001101100011001111001111111110
00111101000000000000111101111111110
00111110000000000000001111111111110
00111000000000000000000001111111110
00011000000000000000000001111111110
00011000000000000000000001111111110
00011100000000000000110001111111111
00011110000000000011100001111011111
00011111100000111100001001111000111
00011111111111100000111001111100011
00011111000000000001100001111100011
00011011100000000111000001111110011
00111001110000011110000000111111111
01111000111111110000000000011111111
11110000011111100000000000001111111
11110000001111000000000000001111111
11110000000000000000000000000111111
11100000000000000000000000000111111
