P1
20 20 
00000000000011111000
00000000001100001100
00000110001010100110
00000011001000000010
00000001001100000001
00000001100011000001
00000000100001111001
00111110101111001001
01111111111111111011
11110111111111110010
11101111111111100110
11101111111110001100
11011111111100011000
11011111111100111000
11011111111111111000
11111111111111111000
11111111111111110000
01111111111111110000
00111111111111100000
00011111011111000000
