P1
27 25 
000000000000000011000001111
000000000000000110000111100
000000001110001100011111110
000000011111011101111111000
000000111011101011111110000
111111111111110111111111000
000000111111101111111100000
000000011110110111111000000
000000001101011011111100000
000000001011111111110000000
000000000111101111100000000
000000000111111111000000000
000000000011111011100000000
000000000001111111110000000
000000000000111111111000000
000000000000011111110100000
000000000000000101111110000
000000000000000010110111000
000000000000000011011111100
000000000000000011100111110
000000000000000001111000111
000000000000000001110000001
000000000000000001100000000
000000000000000001100000000
000000000000000001000000000
