P1
34 31 
0000000000000000101000000011100000
0000000000000001110101111001110000
0000000000000001110111111110110000
0000000000000001111111111111011000
0000000000000011111111111111011000
0000000011111011111111101101111000
0000001111111011111111111111110000
0000011111111011111011111111100000
0000111111111101111011111111110000
1000111111111110011011110111111000
0111111111111111011011111011111100
0001111111111111011011111100111110
0001111111111111100100111111011110
0001111111111111111111000110001111
0001111111111111111111111000000111
0001111111111111111111111100000111
0001111111111111111111111100000111
0001111111111011111011111100001110
0001111111111011111011111000011100
0001111111111101111011111000111000
0001101111111101111011111000011000
0001110111111101111101110000010000
0000111001111101111101110000000000
0000111110011110111101100000000000
0000111101100000111101100000000000
0000111001111000111101100000000000
0000111001110000111101111000000000
0000111100000000011101110000000000
0000111100000000011100000000000000
0000011000000000111100000000000000
0000000000000000111000000000000000
