P1
5 4 
11100
00000
10101
00111
