P1
28 33 
0000000000000000000001111000
0000000000000000001111001100
0000000000000000111000000110
0000000000000001100000000010
0000000000000011000000000011
0000000000000010000000000001
0000000000000011000000000001
0000000000000001000000000001
0000000000000001101010100001
0000000000000000111111000001
0000000000000000000011000001
0000000000000000000011000011
0000000000000000000011000010
0000000000000000000011000110
0000000000000000111111000100
0000000000000011100011001100
0000000000000110011111101100
0000000000011100111111000100
0000000000110011111110000100
0000000011101111111100001110
0000011110011111111000011110
0001110000111111000001111110
0011111110000000000111111110
0110111111110001111111111110
1111111111111111111111111100
0111111111111111111111111100
0000000111111111111111111000
0000000110011110000111110000
0000001110011100000011100000
0000011100011100000011100000
0000000000111000000011000000
0000000000110000000111000000
0000000001110000001110000000
