P1
38 30 
00000000000000000000000000000011100000
00000000000000000000000000011111110000
00000000000000000000000000001111111000
00000000000000000000000001111111101100
00000000000000000000000000111111111110
00000000000000000000000111111111111111
00000000000000000000000011111111011111
00000000000000000000000011111110000010
00000000001111000000000111111110000000
00000000111111111000111111111100000000
00000011111111111111111111111100000000
00000111111111111111111111111000000000
00001110111111111111111111111000000000
00011100111111111111111111111000000000
00111000111111111111111111111111110000
01110001111111111111111111111111111000
11110001111111111111111111111100011000
01100011111000011111111111100000011000
00100011110100000011111100010000011000
00000111101100000000000001110000011000
00001111011000000000000001110000011000
00001110011000000000000000110000011000
00001100011000000000000000110000111000
00011100001100000000000000110000110000
00011000001100000000000000110000100000
00011000001100000000000000110000000000
00011000000110000000000000110000000000
00011000000110000000000000110000000000
00001100000011000000000000011000000000
00001110000011100000000000011100000000
