P1
45 45 
111111111110011111011111111111001111111111111
111111111001111110111111000111110111111111111
111111110111111101111111111001111011111111111
111111101111111011111111111110111101111111111
111111011110000000001111111111011101111111111
111110111000000000000001111111101110111111111
111101110000000000000000111111101110111111111
111101110000000000000000011111110111011111111
111011110000000000000000011111110111011111111
111011100000000000000000001111111111101111111
110111100000000000000000000011111111101111111
110111100000000000000000000001101111110111111
101101100000000000000000000001101110110111111
101101100111100000011111100011101110111011111
011011111000010000111000011111110111011011111
011011111111111001110111111111110111011101111
010111100001101001111001101101111011101101111
110111100000000001100000011001111101101110111
110111100000000001100000000001111111110111011
101111100000000001000000000011111111111111101
111111100000000000000000000011111111111111110
111111110000000000000000000111111111111111111
111111110000000000100000001111111111111111111
111111110000010011100000011111111111111111111
111111111000001111000000011111111111111111111
111111111000000000000100111111111111111111111
111111111000111011111000111111111111111111111
111111111100011111100000111111111111111111111
111111111100001111000001111111111111111111111
111111111110000000000011111111111111111111111
111111111111000000000111111111111111111111111
111111111111110000011111111111111111111111111
111111111111111111111111111111111111111111111
111111111111111111111111111111111111111111111
111111111111110001111111111111111111111111111
111111111111110000111111111111111111111111111
111111111111110000001111111111111111111111111
111111111111110000000010111111101111111111111
111111111111100000000001011011111111111111111
111111111111100000000000000100100101111111111
111111111111000000000000000000000011111111111
111111111100000000000000000000000000111111111
111111100000000000000000000000000101111111111
111110011000000000000000000000000000111111111
111001111100000000000000000000000001111111111
