P1
30 30 
111111111111111111111100111111
111111111100000001111110011111
111011110000000000111111011110
111101100000000000011111001100
111110100000000000001111100001
111110000000000000000111111111
111000000000000011110011111111
110000000000000110000001111111
100000000000001100011000111111
000000000000001000111100011111
000000000000001001111100011111
000000000000001011101000001111
000000000000000011110000001111
000000000000000010000000001111
000001111110000000000000000111
000011000011000000000000000111
000110001111100000000000000111
000100111110000000000000000011
100101110100000000000000000011
100111101000000000110000000001
110101110000001000100000000001
111111100000001110000000000001
111010000000001111100111100001
111000000000000111000111100001
111100000000000000011101100001
111110000000000000111011000001
111111000000000000110111000001
111111111000000000111110000011
111111111100000000111000000011
111111111110000000000000000111
