P1
21 19 
000000111111110000000
000011100000011100000
000110000000000110000
001100000000000011000
011000000000000001100
010011111001111100100
110111111111111110110
100111111001111110010
100101110000111010010
100100000000000010011
110100000000000010001
010100001111000010001
010110001111000110001
010010000110000100011
110011000000001100010
100011101001011100010
100010110110110110110
110110011001100011100
011100001111000000000
