P1
19 19 
0000000000000000111
0000000000000000001
0000000000000011101
0000000000000000100
0000000000001110100
0000000000000010000
0000000000111010000
0000000000001000000
0000000011101000000
0000000000100000000
0000001110100000000
0000000010000000000
0000111010000000000
0000001000000000000
0011101000000000000
0000100000000000000
1110100000000000000
0010000000000000000
0010000000000000000
