P1
36 19 
111111111111111111111111111111111111
100000000000000000000000000000000001
101010100100110011110101000010111101
100100100101001010000101000010100001
101010100101001010000101000010100001
100100100101001011110101000010111101
101010100101111000010101000010000101
100100111101001000010101000010000101
101010011001001011110101111010111101
100000000000000000000000000000000001
101010011001001010111101000110100101
101010100101101010100000001010100101
101110100101101010100001010010100101
100100100101111010111100010010111101
100100111101011010000101010010000101
100100100101011010000100010100000101
100100100101001010111101011000000101
100000000000000000000000000000000001
111111111111111111111111111111111111
