P1
4 2 
0110
1001
