P1
15 15 
000011100000000
000110111000000
000111100000000
001111000000000
010000100000000
100001110000000
100011011000000
100011011100000
100001101110000
010000110111000
001100011101110
000111101100011
000101000100000
111111110000000
001010011111100
